<svg width="25" height="25" viewBox="0 0 25 25" fill="none" xmlns="http://www.w3.org/2000/svg">
<g clip-path="url(#clip0_10_62)">
<path d="M8.05176 1.20117C7.67578 0.292969 6.68457 -0.190429 5.7373 0.0683598L1.44043 1.24023C0.59082 1.47461 0 2.24609 0 3.125C0 15.2051 9.79492 25 21.875 25C22.7539 25 23.5254 24.4092 23.7598 23.5596L24.9316 19.2627C25.1904 18.3154 24.707 17.3242 23.7988 16.9482L19.1113 14.9951C18.3154 14.6631 17.3926 14.8926 16.8506 15.5615L14.8779 17.9688C11.4404 16.3428 8.65723 13.5596 7.03125 10.1221L9.43848 8.1543C10.1074 7.60742 10.3369 6.68945 10.0049 5.89355L8.05176 1.20606V1.20117Z" fill="white"/>
</g>
<defs>
<clipPath id="clip0_10_62">
<rect width="25" height="25" fill="white"/>
</clipPath>
</defs>
</svg>
